<mxfile host="app.diagrams.net" agent="Mozilla/5.0 (Windows NT 10.0; Win64; x64) AppleWebKit/537.36 (KHTML, like Gecko) Chrome/135.0.0.0 Safari/537.36" version="26.2.12">
  <diagram name="Page-1" id="gO48v7BawkeOz_kCi_GF">
    <mxGraphModel dx="2009" dy="650" grid="1" gridSize="10" guides="1" tooltips="1" connect="1" arrows="1" fold="1" page="1" pageScale="1" pageWidth="827" pageHeight="1169" math="0" shadow="0">
      <root>
        <mxCell id="0" />
        <mxCell id="1" parent="0" />
        <mxCell id="551NXQQ2QaWTj2haGZd2-7" value="Mobile App (Flutter)" style="rounded=0;whiteSpace=wrap;html=1;verticalAlign=bottom;" vertex="1" parent="1">
          <mxGeometry x="370" y="580" width="150" height="260" as="geometry" />
        </mxCell>
        <mxCell id="551NXQQ2QaWTj2haGZd2-15" style="edgeStyle=orthogonalEdgeStyle;rounded=0;orthogonalLoop=1;jettySize=auto;html=1;" edge="1" parent="1" source="551NXQQ2QaWTj2haGZd2-2" target="551NXQQ2QaWTj2haGZd2-14">
          <mxGeometry relative="1" as="geometry" />
        </mxCell>
        <mxCell id="551NXQQ2QaWTj2haGZd2-2" value="Requestor" style="shape=umlActor;verticalLabelPosition=bottom;verticalAlign=top;html=1;outlineConnect=0;" vertex="1" parent="1">
          <mxGeometry x="800" y="250" width="30" height="60" as="geometry" />
        </mxCell>
        <mxCell id="551NXQQ2QaWTj2haGZd2-3" value="Market Maker" style="shape=umlActor;verticalLabelPosition=bottom;verticalAlign=top;html=1;outlineConnect=0;" vertex="1" parent="1">
          <mxGeometry x="300" y="310" width="30" height="60" as="geometry" />
        </mxCell>
        <mxCell id="551NXQQ2QaWTj2haGZd2-4" value="Orchestrator / Broker" style="rounded=0;whiteSpace=wrap;html=1;" vertex="1" parent="1">
          <mxGeometry x="385" y="320" width="120" height="60" as="geometry" />
        </mxCell>
        <mxCell id="551NXQQ2QaWTj2haGZd2-18" style="edgeStyle=orthogonalEdgeStyle;rounded=0;orthogonalLoop=1;jettySize=auto;html=1;entryX=0.5;entryY=1;entryDx=0;entryDy=0;" edge="1" parent="1" source="551NXQQ2QaWTj2haGZd2-5" target="551NXQQ2QaWTj2haGZd2-17">
          <mxGeometry relative="1" as="geometry" />
        </mxCell>
        <mxCell id="551NXQQ2QaWTj2haGZd2-5" value="Worker" style="rounded=0;whiteSpace=wrap;html=1;" vertex="1" parent="1">
          <mxGeometry x="385" y="600" width="120" height="60" as="geometry" />
        </mxCell>
        <mxCell id="551NXQQ2QaWTj2haGZd2-6" value="WASM Runtime" style="rounded=0;whiteSpace=wrap;html=1;" vertex="1" parent="1">
          <mxGeometry x="385" y="670" width="120" height="60" as="geometry" />
        </mxCell>
        <mxCell id="551NXQQ2QaWTj2haGZd2-9" value="&lt;h1 style=&quot;margin-top: 0px;&quot;&gt;&lt;font style=&quot;font-size: 10px;&quot;&gt;Supplier Pseudo Client&lt;/font&gt;&lt;/h1&gt;&lt;p&gt;&lt;font style=&quot;font-size: 8px;&quot; face=&quot;Courier New&quot;&gt;loop:&lt;br&gt;&lt;span style=&quot;white-space: pre;&quot;&gt;&#x9;&lt;/span&gt;connect to orchestrator&lt;br&gt;&lt;span style=&quot;white-space: pre;&quot;&gt;&#x9;&lt;/span&gt;query for work packages (?filters..revenue,capability)&lt;br&gt;&lt;span style=&quot;white-space: pre;&quot;&gt;&#x9;&lt;/span&gt;retrieve module (e.g. LLM WASM module) from orchestrator or p2p or requestor&lt;br&gt;&amp;nbsp; &amp;nbsp; &amp;nbsp; &amp;nbsp; install module&lt;br&gt;&lt;span style=&quot;white-space: pre;&quot;&gt;&#x9;&lt;/span&gt;execute work package task(s)&lt;br&gt;&amp;nbsp; &amp;nbsp; &amp;nbsp; &amp;nbsp; submit/return results to original requestor&lt;br&gt;&lt;span style=&quot;white-space: pre;&quot;&gt;&#x9;&lt;/span&gt;&lt;br&gt;&lt;/font&gt;&lt;/p&gt;&lt;p&gt;&lt;br&gt;&lt;/p&gt;" style="text;html=1;whiteSpace=wrap;overflow=hidden;rounded=0;" vertex="1" parent="1">
          <mxGeometry x="-140" y="510" width="410" height="190" as="geometry" />
        </mxCell>
        <mxCell id="551NXQQ2QaWTj2haGZd2-10" value="Compute Supplier" style="shape=umlActor;verticalLabelPosition=bottom;verticalAlign=top;html=1;outlineConnect=0;" vertex="1" parent="1">
          <mxGeometry x="570" y="650" width="30" height="60" as="geometry" />
        </mxCell>
        <mxCell id="551NXQQ2QaWTj2haGZd2-14" value="Requestor API" style="rounded=0;whiteSpace=wrap;html=1;" vertex="1" parent="1">
          <mxGeometry x="385" y="250" width="120" height="60" as="geometry" />
        </mxCell>
        <mxCell id="551NXQQ2QaWTj2haGZd2-17" value="Supplier API" style="rounded=0;whiteSpace=wrap;html=1;" vertex="1" parent="1">
          <mxGeometry x="385" y="390" width="120" height="60" as="geometry" />
        </mxCell>
        <mxCell id="551NXQQ2QaWTj2haGZd2-20" value="&lt;font style=&quot;font-size: 8px;&quot; face=&quot;Courier New&quot;&gt;{&lt;br&gt;&quot;id&quot;: &quot;8983243-3232-31243124&quot;,&lt;br&gt;&quot;module_name&quot;: &quot;earth.vie.llms.llama.v7&quot;,&lt;br&gt;&quot;sla_filters&quot;: [...],&lt;br&gt;&quot;tasks&quot;: [{...}, {...}]&lt;br&gt;}&lt;/font&gt;" style="text;html=1;overflow=hidden;rounded=0;" vertex="1" parent="1">
          <mxGeometry x="550" y="290" width="220" height="160" as="geometry" />
        </mxCell>
        <mxCell id="551NXQQ2QaWTj2haGZd2-21" value="Mobile App (Flutter)" style="rounded=0;whiteSpace=wrap;html=1;verticalAlign=bottom;" vertex="1" parent="1">
          <mxGeometry x="650" y="580" width="150" height="260" as="geometry" />
        </mxCell>
        <mxCell id="551NXQQ2QaWTj2haGZd2-24" style="edgeStyle=orthogonalEdgeStyle;rounded=0;orthogonalLoop=1;jettySize=auto;html=1;entryX=1;entryY=0.5;entryDx=0;entryDy=0;exitX=0.542;exitY=0.002;exitDx=0;exitDy=0;exitPerimeter=0;" edge="1" parent="1" source="551NXQQ2QaWTj2haGZd2-22" target="551NXQQ2QaWTj2haGZd2-17">
          <mxGeometry relative="1" as="geometry" />
        </mxCell>
        <mxCell id="551NXQQ2QaWTj2haGZd2-22" value="Worker" style="rounded=0;whiteSpace=wrap;html=1;" vertex="1" parent="1">
          <mxGeometry x="665" y="600" width="120" height="60" as="geometry" />
        </mxCell>
        <mxCell id="551NXQQ2QaWTj2haGZd2-23" value="WASM Runtime" style="rounded=0;whiteSpace=wrap;html=1;" vertex="1" parent="1">
          <mxGeometry x="665" y="670" width="120" height="60" as="geometry" />
        </mxCell>
        <mxCell id="551NXQQ2QaWTj2haGZd2-25" value="Persistent Store" style="rounded=0;whiteSpace=wrap;html=1;" vertex="1" parent="1">
          <mxGeometry x="385" y="740" width="120" height="60" as="geometry" />
        </mxCell>
        <mxCell id="551NXQQ2QaWTj2haGZd2-26" value="Persistent Store" style="rounded=0;whiteSpace=wrap;html=1;" vertex="1" parent="1">
          <mxGeometry x="665" y="740" width="120" height="60" as="geometry" />
        </mxCell>
      </root>
    </mxGraphModel>
  </diagram>
</mxfile>
